<svg xmlns="http://www.w3.org/2000/svg" width="24" height="24" fill="none" stroke="currentColor" stroke-linecap="round" stroke-linejoin="round" stroke-width="2" class="icon icon-tabler icon-tabler-briefcase" viewBox="0 0 24 24"><path fill="none" stroke="none" d="M0 0h24v24H0z"/><path d="M9 6v-1a2 2 0 0 1 2 -2h2a2 2 0 0 1 2 2v1"/><path d="M3 13a20 20 0 0 0 18 0"/><path d="M3 7m0 2a2 2 0 0 1 2 -2h14a2 2 0 0 1 2 2v9a2 2 0 0 1 -2 2h-14a2 2 0 0 1 -2 -2z"/><path d="M8 12l0 .01"/><path d="M16 12l0 .01"/></svg>